<svg id="Layer_1" data-name="Layer 1" xmlns="http://www.w3.org/2000/svg" viewBox="0 0 164.43 58.3"><defs><style>.cls-1{fill:#ff8300;}.cls-1,.cls-2,.cls-4,.cls-5{stroke:#231f20;stroke-linecap:round;stroke-linejoin:round;}.cls-1,.cls-2,.cls-4{stroke-width:2.56px;}.cls-2{fill:#ffda00;}.cls-3{fill:#231f20;}.cls-4{fill:none;}.cls-5{fill:#f359b4;stroke-width:1.85px;}</style></defs><title>wapuuji</title><path class="cls-1" d="M50.89,8.71c6.32-3.35,3.34,3.75,1.94,6.51S41.88,39,25.41,40.87-0.61,32.63,2,30.64,37.87,15.61,50.89,8.71Z"/><path class="cls-1" d="M114.11,8.71c-6.32-3.35-3.34,3.75-1.94,6.51s11,23.74,27.42,25.65,26-8.23,23.42-10.22S127.13,15.61,114.11,8.71Z"/><path class="cls-2" d="M82.93,1.46c48.17,0,50.19,34.82,36.6,44.91-16.58,12.32-57.18,13-74.07,0C31.69,35.78,33.71,1.46,82.93,1.46Z"/><path class="cls-3" d="M76.26,34.61c1-2.32,12.11-2.47,13,0,1.1,3.21-6.58,5-6.58,5S75,37.64,76.26,34.61Z"/><path class="cls-4" d="M53,28.46a5.73,5.73,0,0,1,5.79-4.1c4.21,0,5.61,4.1,5.61,4.1"/><path class="cls-4" d="M101,28.46a5.73,5.73,0,0,1,5.79-4.1c4.21,0,5.61,4.1,5.61,4.1"/><path class="cls-5" d="M94.83,48.88S97.67,59,104,57.37s2.26-9.92,2.26-9.92"/><path class="cls-4" d="M109.47,45c-14.31,10.18-26.6-1.87-26.6-1.87S69.37,55.87,55.4,45"/></svg>