<svg id="Layer_1" data-name="Layer 1" xmlns="http://www.w3.org/2000/svg" viewBox="0 0 164.43 56.97"><defs><style>.cls-1{fill:#ff8300;}.cls-1,.cls-2,.cls-4,.cls-5{stroke:#231f20;stroke-linecap:round;stroke-linejoin:round;}.cls-1,.cls-2,.cls-5{stroke-width:2.56px;}.cls-2,.cls-4{fill:#ffda00;}.cls-3{fill:#231f20;}.cls-4{stroke-width:3px;}.cls-5{fill:none;}</style></defs><title>wapuuji</title><path class="cls-1" d="M50.6,8c6.32-3.35,3.34,3.75,1.94,6.51s-11,23.74-27.42,25.65S-0.9,32,1.7,30,37.59,15,50.6,8Z"/><path class="cls-1" d="M113.82,8c-6.32-3.35-3.34,3.75-1.94,6.51s11,23.74,27.42,25.65S165.33,32,162.72,30,126.84,15,113.82,8Z"/><path class="cls-2" d="M82.11,1.28c48.17,0,50.19,34.82,36.6,44.91-16.58,12.32-57.18,13-74.07,0C30.87,35.59,32.89,1.28,82.11,1.28Z"/><path class="cls-3" d="M75.44,34.43c1-2.32,12.11-2.47,13,0,1.1,3.21-6.58,5-6.58,5S74.18,37.45,75.44,34.43Z"/><line class="cls-4" x1="54.38" y1="28.63" x2="63.12" y2="26.45"/><line class="cls-4" x1="100.36" y1="26.55" x2="109.14" y2="28.52"/><path class="cls-5" d="M95.35,47.88c-7.23-2.76-13.09-4.45-13.09-4.45a77.4,77.4,0,0,0-13.81,4.72"/></svg>