<svg id="Layer_1" data-name="Layer 1" xmlns="http://www.w3.org/2000/svg" viewBox="0 0 164.43 62.05"><defs><style>.cls-1{fill:#ff8300;}.cls-1,.cls-2,.cls-4{stroke:#231f20;stroke-linecap:round;stroke-linejoin:round;}.cls-1,.cls-4{stroke-width:2.56px;}.cls-2{fill:#ffda00;stroke-width:3px;}.cls-3{fill:#231f20;}.cls-4{fill:none;}</style></defs><title>wapuuji</title><path class="cls-1" d="M61,14c7-1.3,2.07,4.58-.1,6.79S43.37,40.14,27.09,37,4.73,21.37,7.8,20.25,46.54,16.67,61,14Z"/><path class="cls-1" d="M98.83,14c-7-1.3-2.07,4.58.1,6.79S116.5,40.14,132.78,37s22.36-15.66,19.28-16.77S113.32,16.67,98.83,14Z"/><path class="cls-2" d="M118.83,41.5h-3.75a10.19,10.19,0,0,0,1.42-5.76V33.61c0-4.28-3-8.11-7.23-8.11h-5.52a7.72,7.72,0,0,0,1.14-4.24c0-4.86-4-7.76-8.84-7.76h-4.9C91,0.5,70.81,1.58,70.81,1.58c6.42,5,3,7.92-.28,11.92H65.6a8.8,8.8,0,0,0-8.84,8.76,4.66,4.66,0,0,0,1.14,3.24H54.53c-5.45,0-9.91,5.43-9.91,10.88,0,2,.75,3.12,2,5.12H42.84a9,9,0,0,0,0,18h76A9,9,0,0,0,118.83,41.5Z"/><path class="cls-3" d="M74.47,39.18c1-2.32,12.11-2.47,13,0,1.1,3.21-6.58,5-6.58,5S73.21,42.2,74.47,39.18Z"/><path class="cls-4" d="M107.68,49.55c-14.31,10.18-26.6-1.87-26.6-1.87S67.59,60.44,53.61,49.55"/><circle class="cls-3" cx="61.73" cy="34.78" r="3.76"/><circle class="cls-3" cx="99.85" cy="34.78" r="3.76"/></svg>