<svg id="Layer_1" data-name="Layer 1" xmlns="http://www.w3.org/2000/svg" viewBox="0 0 164.43 56.97"><defs><style>.cls-1{fill:#ff8300;}.cls-1,.cls-2,.cls-4{stroke:#231f20;stroke-linecap:round;stroke-linejoin:round;}.cls-1,.cls-2{stroke-width:2.56px;}.cls-2{fill:#ffda00;}.cls-3{fill:#231f20;}.cls-4{fill:#ed1c24;stroke-width:2.67px;}</style></defs><title>wapuuji</title><path class="cls-1" d="M50,9.49C56.35,6.14,53.37,13.24,52,16S41,39.74,24.55,41.65s-26-8.23-23.42-10.22S37,16.4,50,9.49Z"/><path class="cls-1" d="M113.25,9.49c-6.32-3.35-3.34,3.75-1.94,6.51s11,23.74,27.42,25.65,26-8.23,23.42-10.22S126.27,16.4,113.25,9.49Z"/><path class="cls-2" d="M82.07,2.25c48.17,0,50.19,34.82,36.6,44.91-16.58,12.32-57.18,13-74.07,0C30.83,36.56,32.85,2.25,82.07,2.25Z"/><circle class="cls-3" cx="57.73" cy="28.78" r="3.76"/><circle class="cls-3" cx="105.85" cy="28.78" r="3.76"/><path class="cls-3" d="M75.4,35.4c1-2.32,12.11-2.47,13,0,1.1,3.21-6.58,5-6.58,5S74.13,38.42,75.4,35.4Z"/><path class="cls-4" d="M76.72,51.14c0-2.85,5.16-7.27,5.16-7.27S87,48.29,87,51.14A5.16,5.16,0,1,1,76.72,51.14Z"/></svg>