<svg id="Layer_1" data-name="Layer 1" xmlns="http://www.w3.org/2000/svg" viewBox="0 0 164.43 58.85"><defs><style>.cls-1{fill:#ff8300;}.cls-1,.cls-2,.cls-4,.cls-5,.cls-6{stroke:#231f20;stroke-linecap:round;stroke-linejoin:round;}.cls-1,.cls-2,.cls-4,.cls-5{stroke-width:2.56px;}.cls-2{fill:#ffda00;}.cls-3{fill:#231f20;}.cls-4,.cls-6{fill:none;}.cls-5{fill:#fff;}</style></defs><title>wapuuji</title><path class="cls-1" d="M50.6,8.52c6.32-3.35,3.34,3.75,1.94,6.51s-11,23.74-27.42,25.65S-0.9,32.45,1.7,30.46,37.59,15.43,50.6,8.52Z"/><path class="cls-1" d="M113.82,8.52c-6.32-3.35-3.34,3.75-1.94,6.51s11,23.74,27.42,25.65,26-8.23,23.42-10.22S126.84,15.43,113.82,8.52Z"/><path class="cls-2" d="M82.64,1.28c48.17,0,50.37,35.07,36.6,44.91-22.86,16.36-55.32,13.95-74.07,0C31.23,35.82,33.42,1.28,82.64,1.28Z"/><path class="cls-3" d="M76,34.43c1-2.32,12.11-2.47,13,0,1.1,3.21-6.58,5-6.58,5S74.71,37.45,76,34.43Z"/><path class="cls-4" d="M52.25,28.28A5.73,5.73,0,0,1,58,24.18c4.21,0,5.61,4.1,5.61,4.1"/><path class="cls-4" d="M100.25,28.28a5.73,5.73,0,0,1,5.79-4.1c4.21,0,5.61,4.1,5.61,4.1"/><path class="cls-5" d="M83,42.79c-6.08,7.7-15.24,3.29-18.35,6.4-3.7,3.7-1.47,8,18.35,8s21.2-5.34,17.59-8C94.64,44.93,88.92,50.49,83,42.79Z"/><line class="cls-6" x1="64.25" y1="51.68" x2="102.25" y2="51.68"/><line class="cls-6" x1="70.75" y1="49.18" x2="70.75" y2="54.18"/><line class="cls-6" x1="76.75" y1="49.18" x2="76.75" y2="54.18"/><line class="cls-6" x1="82.75" y1="49.18" x2="82.75" y2="54.18"/><line class="cls-6" x1="88.75" y1="49.18" x2="88.75" y2="54.18"/><line class="cls-6" x1="94.75" y1="49.18" x2="94.75" y2="54.18"/></svg>