<svg id="Layer_1" data-name="Layer 1" xmlns="http://www.w3.org/2000/svg" viewBox="0 0 164.43 57.45"><defs><style>.cls-1{fill:#ff8300;}.cls-1,.cls-2,.cls-4,.cls-5{stroke:#231f20;stroke-linecap:round;stroke-linejoin:round;}.cls-1,.cls-2,.cls-4{stroke-width:2.56px;}.cls-2{fill:#ffda00;}.cls-3{fill:#231f20;}.cls-4{fill:none;}.cls-5{fill:#ed1c24;stroke-width:1.85px;}</style></defs><title>wapuuji</title><path class="cls-1" d="M50.6,8.52c6.32-3.35,3.34,3.75,1.94,6.51s-11,23.74-27.42,25.65S-0.9,32.45,1.7,30.46,37.59,15.43,50.6,8.52Z"/><path class="cls-1" d="M113.82,8.52c-6.32-3.35-3.34,3.75-1.94,6.51s11,23.74,27.42,25.65,26-8.23,23.42-10.22S126.84,15.43,113.82,8.52Z"/><path class="cls-2" d="M82.64,1.28c48.17,0,50.19,34.82,36.6,44.91-16.58,12.32-57.18,13-74.07,0C31.4,35.59,33.42,1.28,82.64,1.28Z"/><circle class="cls-3" cx="58.31" cy="27.81" r="3.76"/><path class="cls-3" d="M76,34.43c1-2.32,12.11-2.47,13,0,1.1,3.21-6.58,5-6.58,5S74.71,37.45,76,34.43Z"/><polyline class="cls-4" points="109.86 25.62 101.83 29.69 109.93 31.46"/><path class="cls-4" d="M49.61,22.33A12.31,12.31,0,0,0,60.22,18.8"/><path class="cls-4" d="M82.16,55.44s6.32,0,7.18-2.54c1.08-3.17-2.6-3.52-2.6-3.52s2.77-1.31,2.6-3.68c-0.31-4.14-7.17-2.89-7.17-2.89"/><path class="cls-5" d="M103.19,47.22s-3.38-4.32-6.75-.95c-4,4,6.75,10.25,6.75,10.25s11.43-6.48,6.94-11C107,42.46,103.19,47.22,103.19,47.22Z"/></svg>