<svg id="Layer_1" data-name="Layer 1" xmlns="http://www.w3.org/2000/svg" viewBox="0 0 164.43 56.97"><defs><style>.cls-1{fill:#ff8300;}.cls-1,.cls-2,.cls-3,.cls-5{stroke:#231f20;stroke-linecap:round;stroke-linejoin:round;stroke-width:2.56px;}.cls-2{fill:#ffda00;}.cls-3{fill:none;}.cls-4{fill:#231f20;}.cls-5{fill:#27aae1;}</style></defs><title>wapuuji</title><path class="cls-1" d="M50.6,8.87c6.32-3.35,3.34,3.75,1.94,6.51S41.59,39.12,25.13,41-0.9,32.8,1.7,30.81,37.59,15.78,50.6,8.87Z"/><path class="cls-1" d="M113.82,8.87c-6.32-3.35-3.34,3.75-1.94,6.51s11,23.74,27.42,25.65,26-8.23,23.42-10.22S126.84,15.78,113.82,8.87Z"/><path class="cls-2" d="M82.68,1.28c48.17,0,50.19,34.82,36.6,44.91-16.58,12.32-57.18,13-74.07,0C31.44,35.59,33.46,1.28,82.68,1.28Z"/><path class="cls-3" d="M97.71,48.38c-7.23-2.76-15.09-5-15.09-5a94.77,94.77,0,0,0-15.81,5.22"/><circle class="cls-4" cx="58.34" cy="27.81" r="3.76"/><circle class="cls-4" cx="106.47" cy="27.81" r="3.76"/><path class="cls-4" d="M76,34.43c1-2.32,12.11-2.47,13,0,1.1,3.21-6.58,5-6.58,5S74.75,37.45,76,34.43Z"/><path class="cls-5" d="M112.47,33.49s-4,19.93,6,19.93S122.47,40.45,112.47,33.49Z"/><path class="cls-3" d="M60.32,18a12.31,12.31,0,0,1-10,5"/><path class="cls-3" d="M104.32,18a12.31,12.31,0,0,0,10,5"/></svg>