<svg id="Layer_1" data-name="Layer 1" xmlns="http://www.w3.org/2000/svg" viewBox="0 0 164.43 56.97"><defs><style>.cls-1{fill:#ff8300;}.cls-1,.cls-2,.cls-3,.cls-4,.cls-5,.cls-7,.cls-8{stroke:#231f20;stroke-linecap:round;stroke-linejoin:round;}.cls-1,.cls-2,.cls-4{stroke-width:2.56px;}.cls-2,.cls-8{fill:#ffda00;}.cls-3{fill:#ed1c24;stroke-width:2.67px;}.cls-4{fill:none;}.cls-5,.cls-7{fill:#00aeef;}.cls-5{stroke-width:2px;}.cls-6{fill:#231f20;}.cls-7,.cls-8{stroke-width:4px;}</style></defs><title>wapuuji</title><path class="cls-1" d="M50.6,9.35c6.32-3.35,3.34,3.75,1.94,6.51s-11,23.74-27.42,25.65S-0.9,33.28,1.7,31.29,37.59,16.26,50.6,9.35Z"/><path class="cls-1" d="M113.82,9.35c-6.32-3.35-3.34,3.75-1.94,6.51s11,23.74,27.42,25.65,26-8.23,23.42-10.22S126.84,16.26,113.82,9.35Z"/><path class="cls-2" d="M82.91,1.28c48.17,0,50.19,34.82,36.6,44.91-16.58,12.32-57.18,13-74.07,0C31.67,35.59,33.69,1.28,82.91,1.28Z"/><path class="cls-3" d="M77.3,50.17c0-2.85,5.16-7.27,5.16-7.27s5.16,4.42,5.16,7.27A5.16,5.16,0,1,1,77.3,50.17Z"/><path class="cls-4" d="M53.21,22.21a12.31,12.31,0,0,0,10.67-3.35"/><path class="cls-4" d="M111.88,22.21a12.31,12.31,0,0,1-10.67-3.35"/><polygon class="cls-5" points="55.05 51.04 55.05 28.63 63.05 26.45 63.05 53.04 55.05 51.04"/><polygon class="cls-5" points="109.05 51.04 109.05 28.63 101.05 26.45 101.05 53.04 109.05 51.04"/><path class="cls-6" d="M76.24,34.43c1-2.32,12.11-2.47,13,0,1.1,3.21-6.58,5-6.58,5S75,37.45,76.24,34.43Z"/><line class="cls-7" x1="55.18" y1="28.63" x2="63.91" y2="26.45"/><line class="cls-8" x1="101.15" y1="26.55" x2="109.94" y2="28.52"/></svg>