<svg id="Layer_1" data-name="Layer 1" xmlns="http://www.w3.org/2000/svg" xmlns:xlink="http://www.w3.org/1999/xlink" viewBox="0 0 164.43 59.11"><defs><style>.cls-1{fill:#ff8300;}.cls-1,.cls-2,.cls-4,.cls-5,.cls-6{stroke:#231f20;stroke-linecap:round;stroke-linejoin:round;}.cls-1,.cls-2,.cls-5{stroke-width:2.56px;}.cls-2{fill:#ffda00;}.cls-3{fill:#231f20;}.cls-4{fill:#ed1c24;}.cls-4,.cls-6{stroke-width:1.85px;}.cls-5{fill:none;}.cls-6{fill:url(#linear-gradient);}</style><linearGradient id="linear-gradient" x1="82.3" y1="43.17" x2="82.3" y2="58.19" gradientUnits="userSpaceOnUse"><stop offset="0.24" stop-color="#ec008c"/><stop offset="0.5" stop-color="#f359b4"/></linearGradient></defs><title>wapuuji</title><path class="cls-1" d="M50.6,8.52c6.32-3.35,3.34,3.75,1.94,6.51s-11,23.74-27.42,25.65S-0.9,32.45,1.7,30.46,37.59,15.43,50.6,8.52Z"/><path class="cls-1" d="M113.82,8.52c-6.32-3.35-3.34,3.75-1.94,6.51s11,23.74,27.42,25.65,26-8.23,23.42-10.22S126.84,15.43,113.82,8.52Z"/><path class="cls-2" d="M82.64,1.28c48.17,0,50.37,35.07,36.6,44.91-22.86,16.36-55.32,13.95-74.07,0C31.23,35.82,33.42,1.28,82.64,1.28Z"/><path class="cls-3" d="M76,34.43c1-2.32,12.11-2.47,13,0,1.1,3.21-6.58,5-6.58,5S74.71,37.45,76,34.43Z"/><path class="cls-4" d="M67.88,50s7.05,4,14.27,4S97.86,49.2,97.86,49.2L90,48.09l-7.46-5.16-5.42,4.14Z"/><polyline class="cls-5" points="109.7 24.74 101.67 28.81 109.76 30.57"/><path class="cls-6" d="M88.52,47.26s-0.6,10.92-6.26,10.92c-6.55,0-6.17-10.49-6.17-10.49l6.5-4.76Z"/><path class="cls-5" d="M109.18,44.8C94.88,55,82.58,42.93,82.58,42.93S69.09,55.69,55.11,44.8"/><polyline class="cls-5" points="53.73 24.74 61.76 28.81 53.66 30.57"/></svg>