<svg id="Layer_1" data-name="Layer 1" xmlns="http://www.w3.org/2000/svg" viewBox="0 0 164.43 58.85"><defs><style>.cls-1{fill:#ff8300;}.cls-1,.cls-2,.cls-4,.cls-5{stroke:#231f20;stroke-linecap:round;stroke-linejoin:round;}.cls-1,.cls-2,.cls-5{stroke-width:2.56px;}.cls-2{fill:#ffda00;}.cls-3{fill:#231f20;}.cls-4{fill:#ed1c24;stroke-width:1.85px;}.cls-5{fill:none;}</style></defs><title>wapuuji</title><path class="cls-1" d="M50.6,8.52c6.32-3.35,3.34,3.75,1.94,6.51s-11,23.74-27.42,25.65S-0.9,32.45,1.7,30.46,37.59,15.43,50.6,8.52Z"/><path class="cls-1" d="M113.82,8.52c-6.32-3.35-3.34,3.75-1.94,6.51s11,23.74,27.42,25.65,26-8.23,23.42-10.22S126.84,15.43,113.82,8.52Z"/><path class="cls-2" d="M82.64,1.28c48.17,0,50.37,35.07,36.6,44.91-22.86,16.36-55.32,13.95-74.07,0C31.23,35.82,33.42,1.28,82.64,1.28Z"/><path class="cls-3" d="M76,34.43c1-2.32,12.11-2.47,13,0,1.1,3.21-6.58,5-6.58,5S74.71,37.45,76,34.43Z"/><path class="cls-4" d="M69.88,49a19.11,19.11,0,0,0,12.27,5c7.21,0,12.71-4.79,12.71-4.79L89,47.09l-6.46-4.16-4.42,3.14Z"/><path class="cls-5" d="M109.18,44.8C94.88,55,82.58,42.93,82.58,42.93S69.09,55.69,55.11,44.8"/><path class="cls-5" d="M52.25,30.28A5.73,5.73,0,0,1,58,26.18c4.21,0,5.61,4.1,5.61,4.1"/><path class="cls-5" d="M100.25,30.28a5.73,5.73,0,0,1,5.79-4.1c4.21,0,5.61,4.1,5.61,4.1"/></svg>