<svg id="Layer_1" data-name="Layer 1" xmlns="http://www.w3.org/2000/svg" viewBox="0 0 164.43 56.97"><defs><style>.cls-1{fill:#ff8300;}.cls-1,.cls-2,.cls-3,.cls-5{stroke:#231f20;stroke-linecap:round;stroke-linejoin:round;}.cls-1,.cls-2,.cls-3{stroke-width:2.56px;}.cls-2{fill:#ffda00;}.cls-3{fill:none;}.cls-4,.cls-5{fill:#231f20;}.cls-5{stroke-width:4px;}</style></defs><title>wapuuji</title><path class="cls-1" d="M50.6,8.52c6.32-3.35,3.34,3.75,1.94,6.51s-11,23.74-27.42,25.65S-0.9,32.45,1.7,30.46,37.59,15.43,50.6,8.52Z"/><path class="cls-1" d="M113.82,8.52c-6.32-3.35-3.34,3.75-1.94,6.51s11,23.74,27.42,25.65,26-8.23,23.42-10.22S126.84,15.43,113.82,8.52Z"/><path class="cls-2" d="M82.64,1.28c48.17,0,50.19,34.82,36.6,44.91-16.58,12.32-57.18,13-74.07,0C31.4,35.59,33.42,1.28,82.64,1.28Z"/><path class="cls-3" d="M109.18,44.8C94.88,55,82.58,42.93,82.58,42.93S69.09,55.69,55.11,44.8"/><circle class="cls-4" cx="58.31" cy="27.81" r="3.76"/><circle class="cls-4" cx="106.43" cy="27.81" r="3.76"/><path class="cls-4" d="M76,34.43c1-2.32,12.11-2.47,13,0,1.1,3.21-6.58,5-6.58,5S74.71,37.45,76,34.43Z"/><path class="cls-5" d="M48,18.77s18.44-2.24,25.36,1.59c0,0,4.66,2.92,8.72,2.92,0,0-4.46.33-6,3.72C74,31.49,71.28,32.51,62,32.51,47.54,32.51,51.75,24.48,48,18.77Z"/><path class="cls-5" d="M116.41,18.77S98,16.53,91.05,20.36c0,0-4.66,2.92-8.72,2.92,0,0,4.46.33,6,3.72,2.06,4.49,3.6,5.51,14.14,5.51C116.92,32.51,112.71,24.48,116.41,18.77Z"/></svg>