<svg id="Layer_1" data-name="Layer 1" xmlns="http://www.w3.org/2000/svg" xmlns:xlink="http://www.w3.org/1999/xlink" viewBox="0 0 164.43 58.85"><defs><style>.cls-1{fill:#ff8300;}.cls-1,.cls-2,.cls-4,.cls-5,.cls-6{stroke:#231f20;stroke-linecap:round;stroke-linejoin:round;}.cls-1,.cls-2,.cls-5,.cls-6{stroke-width:2.56px;}.cls-2{fill:url(#linear-gradient);}.cls-3{fill:#231f20;}.cls-4{fill:#ed1c24;stroke-width:2.67px;}.cls-5{fill:#ffda00;}.cls-6{fill:#fff;}</style><linearGradient id="linear-gradient" x1="82.17" y1="2.52" x2="82.17" y2="53.62" gradientUnits="userSpaceOnUse"><stop offset="0" stop-color="#00aeef"/><stop offset="0.06" stop-color="#0bb0e4"/><stop offset="0.18" stop-color="#2ab5c8"/><stop offset="0.32" stop-color="#5cbe99"/><stop offset="0.5" stop-color="#a0ca59"/><stop offset="0.71" stop-color="#f6d908"/><stop offset="0.72" stop-color="#ffda00"/></linearGradient></defs><title>wapuuji</title><path class="cls-1" d="M50.6,8.52c6.32-3.35,3.34,3.75,1.94,6.51s-11,23.74-27.42,25.65S-0.9,32.45,1.7,30.46,37.59,15.43,50.6,8.52Z"/><path class="cls-1" d="M113.82,8.52c-6.32-3.35-3.34,3.75-1.94,6.51s11,23.74,27.42,25.65,26-8.23,23.42-10.22S126.84,15.43,113.82,8.52Z"/><path class="cls-2" d="M82.64,1.28c48.17,0,50.37,35.07,36.6,44.91-22.86,16.36-55.32,13.95-74.07,0C31.23,35.82,33.42,1.28,82.64,1.28Z"/><path class="cls-3" d="M76,34.43c1-2.32,12.11-2.47,13,0,1.1,3.21-6.58,5-6.58,5S74.71,37.45,76,34.43Z"/><path class="cls-4" d="M76,51.25c0-3.32,6-8.48,6-8.48s6,5.16,6,8.48A6,6,0,1,1,76,51.25Z"/><path class="cls-5" d="M52.18,42.66c3.94,3.47,4.49,9.28,2.12,12s-7.49,2.07-11.43-1.4S37.66,44.77,40,42.08,48.25,39.19,52.18,42.66Z"/><path class="cls-5" d="M112.88,42.55c-4,3.37-4.71,9.17-2.4,11.92s7.44,2.24,11.46-1.13,5.4-8.34,3.1-11.09S116.9,39.18,112.88,42.55Z"/><circle class="cls-6" cx="106.23" cy="26.66" r="4.72"/><circle class="cls-6" cx="58.1" cy="26.66" r="4.72"/></svg>