<svg id="Layer_1" data-name="Layer 1" xmlns="http://www.w3.org/2000/svg" viewBox="0 0 164.43 62.05"><defs><style>.cls-1{fill:#ff8300;}.cls-1,.cls-2,.cls-4,.cls-5{stroke:#231f20;stroke-linecap:round;stroke-linejoin:round;}.cls-1,.cls-2,.cls-4{stroke-width:2.56px;}.cls-2{fill:#ffda00;}.cls-3{fill:#231f20;}.cls-4{fill:none;}.cls-5{fill:#9ad7f1;stroke-width:1.85px;}</style></defs><title>wapuuji</title><path class="cls-1" d="M50,13c6.32-3.35,3.34,3.75,1.94,6.51S41,43.27,24.55,45.18-1.47,36.95,1.13,35,37,19.93,50,13Z"/><path class="cls-1" d="M113.25,13c-6.32-3.35-3.34,3.75-1.94,6.51s11,23.74,27.42,25.65,26-8.23,23.42-10.22S126.27,19.93,113.25,13Z"/><path class="cls-2" d="M82.07,5.78c48.17,0,50.19,34.82,36.6,44.91-16.58,12.32-57.18,13-74.07,0C30.83,40.09,32.85,5.78,82.07,5.78Z"/><path class="cls-3" d="M75.4,38.93c1-2.32,12.11-2.47,13,0,1.1,3.21-6.58,5-6.58,5S74.13,42,75.4,38.93Z"/><path class="cls-4" d="M52.14,32.78a5.73,5.73,0,0,1,5.79-4.1c4.21,0,5.61,4.1,5.61,4.1"/><path class="cls-4" d="M100.14,32.78a5.73,5.73,0,0,1,5.79-4.1c4.21,0,5.61,4.1,5.61,4.1"/><path class="cls-4" d="M108.61,49.3C94.3,59.48,82,47.43,82,47.43S68.51,60.19,54.53,49.3"/><path class="cls-5" d="M81.66,2.25C60.28,2.25,43,6.52,43,11.64s17.32,9.78,38.7,9.78,38.7-4.65,38.7-9.78S103,2.25,81.66,2.25Zm0,13.93c-17.85,0-32.32-2.1-32.32-5.32S63.81,5,81.66,5,114,7.65,114,10.86,99.51,16.18,81.66,16.18Z"/></svg>