<svg id="Layer_1" data-name="Layer 1" xmlns="http://www.w3.org/2000/svg" viewBox="0 0 164.43 56.97"><defs><style>.cls-1{fill:#ff8300;}.cls-1,.cls-2,.cls-4{stroke:#231f20;stroke-linecap:round;stroke-linejoin:round;stroke-width:2.56px;}.cls-2{fill:#ffda00;}.cls-3{fill:#231f20;}.cls-4{fill:none;}</style></defs><title>wapuuji</title><path class="cls-1" d="M50.73,8c6.32-3.35,3.34,3.75,1.94,6.51s-11,23.74-27.42,25.65S-0.77,31.95,1.83,30,37.72,14.93,50.73,8Z"/><path class="cls-1" d="M114,8c-6.32-3.35-3.34,3.75-1.94,6.51s11,23.74,27.42,25.65,26-8.23,23.42-10.22S127,14.93,114,8Z"/><path class="cls-2" d="M82.77,0.78c48.17,0,50.19,34.82,36.6,44.91C102.8,58,62.2,58.7,45.3,45.69,31.53,35.09,33.55.78,82.77,0.78Z"/><circle class="cls-3" cx="58.44" cy="27.31" r="3.76"/><circle class="cls-3" cx="106.56" cy="27.31" r="3.76"/><path class="cls-3" d="M76.11,33.93c1-2.32,12.11-2.47,13,0,1.1,3.21-6.58,5-6.58,5S74.84,37,76.11,33.93Z"/><path class="cls-4" d="M67,48.07s11.67-2.55,16.44-5a41.41,41.41,0,0,1,12.23,2"/></svg>