<svg id="Layer_1" data-name="Layer 1" xmlns="http://www.w3.org/2000/svg" viewBox="0 0 164.43 56.97"><defs><style>.cls-1{fill:#ff8300;}.cls-1,.cls-2,.cls-4,.cls-5{stroke:#231f20;stroke-linecap:round;stroke-linejoin:round;}.cls-1,.cls-2,.cls-4{stroke-width:2.56px;}.cls-2,.cls-5{fill:#ffda00;}.cls-3{fill:#231f20;}.cls-4{fill:none;}.cls-5{stroke-width:3px;}</style></defs><title>wapuuji</title><path class="cls-1" d="M50.67,7.79C57,4.43,54,11.53,52.61,14.3S41.66,38,25.19,39.95s-26-8.23-23.42-10.22S37.65,14.69,50.67,7.79Z"/><path class="cls-1" d="M113.89,7.79c-6.32-3.35-3.34,3.75-1.94,6.51s11,23.74,27.42,25.65,26-8.23,23.42-10.22S126.91,14.69,113.89,7.79Z"/><path class="cls-2" d="M82.71,0.54c48.17,0,50.19,34.82,36.6,44.91-16.58,12.32-57.18,13-74.07,0C31.47,34.86,33.49.54,82.71,0.54Z"/><path class="cls-3" d="M76,33.7c1-2.32,12.11-2.47,13,0,1.1,3.21-6.58,5-6.58,5S74.77,36.72,76,33.7Z"/><path class="cls-4" d="M66.89,47.83s11,0.39,16.44-5a25.67,25.67,0,0,0,12.23,2"/><line class="cls-5" x1="53.43" y1="26.5" x2="64.43" y2="26.5"/><line class="cls-5" x1="99.43" y1="26.5" x2="110.43" y2="26.5"/><path class="cls-3" d="M66,27.11a3.76,3.76,0,0,1-7.53,0"/><path class="cls-3" d="M112,27.11a3.76,3.76,0,0,1-7.53,0"/><path class="cls-4" d="M60.22,18.8a12.31,12.31,0,0,0-10.61,3.54"/></svg>