<svg id="Layer_1" data-name="Layer 1" xmlns="http://www.w3.org/2000/svg" viewBox="0 0 164.43 56.97"><defs><style>.cls-1{fill:#ff8300;}.cls-1,.cls-2,.cls-3,.cls-5{stroke:#231f20;stroke-linecap:round;stroke-linejoin:round;}.cls-1,.cls-2,.cls-3{stroke-width:2.56px;}.cls-2,.cls-5{fill:#ffda00;}.cls-3{fill:none;}.cls-4{fill:#231f20;}.cls-5{stroke-width:3px;}</style></defs><title>wapuuji</title><path class="cls-1" d="M50.6,8.52c6.32-3.35,3.34,3.75,1.94,6.51s-11,23.74-27.42,25.65S-0.9,32.45,1.7,30.46,37.59,15.43,50.6,8.52Z"/><path class="cls-1" d="M113.82,8.52c-6.32-3.35-3.34,3.75-1.94,6.51s11,23.74,27.42,25.65,26-8.23,23.42-10.22S126.84,15.43,113.82,8.52Z"/><path class="cls-2" d="M82.64,1.28c48.17,0,50.19,34.82,36.6,44.91-16.58,12.32-57.18,13-74.07,0C31.4,35.59,33.42,1.28,82.64,1.28Z"/><path class="cls-3" d="M97.67,46.38a42.63,42.63,0,0,1-15.09-3s-7.47,3.22-14.81,3.22"/><path class="cls-4" d="M76,34.43c1-2.32,12.11-2.47,13,0,1.1,3.21-6.58,5-6.58,5S74.71,37.45,76,34.43Z"/><line class="cls-5" x1="53.78" y1="26.54" x2="64.78" y2="26.54"/><line class="cls-5" x1="99.78" y1="26.54" x2="110.78" y2="26.54"/><path class="cls-4" d="M66,27.11a3.76,3.76,0,0,1-7.53,0"/><path class="cls-4" d="M112,27.11a3.76,3.76,0,0,1-7.53,0"/><path class="cls-3" d="M63.82,19.81a12.31,12.31,0,0,0-11.09,1.45"/><path class="cls-3" d="M100.74,19.81a12.31,12.31,0,0,1,11.09,1.45"/></svg>