<svg id="Layer_1" data-name="Layer 1" xmlns="http://www.w3.org/2000/svg" viewBox="0 0 164.43 56.97"><defs><style>.cls-1{fill:#ff8300;}.cls-1,.cls-2,.cls-4,.cls-5{stroke:#231f20;stroke-linecap:round;stroke-linejoin:round;}.cls-1,.cls-2{stroke-width:2.56px;}.cls-2{fill:#ffda00;}.cls-3{fill:#231f20;}.cls-4{fill:#ed1c24;}.cls-4,.cls-5{stroke-width:2.67px;}.cls-5{fill:none;}</style></defs><title>wapuuji</title><path class="cls-1" d="M50.6,7.55c6.32-3.35,3.34,3.75,1.94,6.51s-11,23.74-27.42,25.65S-0.9,31.48,1.7,29.49,37.59,14.46,50.6,7.55Z"/><path class="cls-1" d="M113.82,7.55c-6.32-3.35-3.34,3.75-1.94,6.51s11,23.74,27.42,25.65,26-8.23,23.42-10.22S126.84,14.46,113.82,7.55Z"/><path class="cls-2" d="M82.64,0.31c48.17,0,50.19,34.82,36.6,44.91-16.58,12.32-57.18,13-74.07,0C31.4,34.62,33.42.31,82.64,0.31Z"/><path class="cls-3" d="M76,33.46c1-2.32,12.11-2.47,13,0,1.1,3.21-6.58,5-6.58,5S74.71,36.49,76,33.46Z"/><path class="cls-4" d="M77.3,49.2c0-2.85,5.16-7.27,5.16-7.27s5.16,4.42,5.16,7.27A5.16,5.16,0,1,1,77.3,49.2Z"/><line class="cls-5" x1="54.48" y1="22.13" x2="62.51" y2="30.16"/><line class="cls-5" x1="62.07" y1="22.13" x2="54.04" y2="30.16"/><line class="cls-5" x1="102.64" y1="22.13" x2="110.67" y2="30.16"/><line class="cls-5" x1="110.22" y1="22.13" x2="102.19" y2="30.16"/></svg>