<svg id="Layer_1" data-name="Layer 1" xmlns="http://www.w3.org/2000/svg" viewBox="0 0 164.43 56.97"><defs><style>.cls-1{fill:#ff8300;}.cls-1,.cls-2,.cls-4,.cls-5{stroke:#231f20;stroke-linecap:round;stroke-linejoin:round;}.cls-1,.cls-2,.cls-5{stroke-width:2.56px;}.cls-2,.cls-4{fill:#ffda00;}.cls-3{fill:#231f20;}.cls-4{stroke-width:3px;}.cls-5{fill:none;}</style></defs><title>wapuuji</title><path class="cls-1" d="M50.6,8.52c6.32-3.35,3.34,3.75,1.94,6.51s-11,23.74-27.42,25.65S-0.9,32.45,1.7,30.46,37.59,15.43,50.6,8.52Z"/><path class="cls-1" d="M113.82,8.52c-6.32-3.35-3.34,3.75-1.94,6.51s11,23.74,27.42,25.65,26-8.23,23.42-10.22S126.84,15.43,113.82,8.52Z"/><path class="cls-2" d="M82.64,1.28c48.17,0,50.19,34.82,36.6,44.91-16.58,12.32-57.18,13-74.07,0C31.4,35.59,33.42,1.28,82.64,1.28Z"/><path class="cls-3" d="M76,34.43c1-2.32,12.11-2.47,13,0,1.1,3.21-6.58,5-6.58,5S74.71,37.45,76,34.43Z"/><line class="cls-4" x1="54.96" y1="18.29" x2="63.61" y2="20.78"/><line class="cls-4" x1="100.89" y1="20.53" x2="109.67" y2="18.55"/><path class="cls-5" d="M97.61,48.38c-7.23-2.76-15.09-5-15.09-5a94.77,94.77,0,0,0-15.81,5.22"/><circle class="cls-3" cx="58.1" cy="27.51" r="3.76"/><circle class="cls-3" cx="106.23" cy="27.51" r="3.76"/></svg>