<svg id="Layer_1" data-name="Layer 1" xmlns="http://www.w3.org/2000/svg" viewBox="0 0 164.43 62.29"><defs><style>.cls-1{fill:#ff8300;}.cls-1,.cls-2,.cls-4,.cls-5{stroke:#231f20;stroke-linecap:round;stroke-linejoin:round;}.cls-1,.cls-2,.cls-4{stroke-width:2.56px;}.cls-2{fill:#ffda00;}.cls-3{fill:#231f20;}.cls-4{fill:none;}.cls-5{fill:#ed1c24;stroke-width:1.85px;}.cls-6{fill:#1c75bc;}</style></defs><title>wapuuji</title><path class="cls-1" d="M50.6,12c6.32-3.35,3.34,3.75,1.94,6.51s-11,23.74-27.42,25.65S-0.9,35.89,1.7,33.9,37.59,18.87,50.6,12Z"/><path class="cls-1" d="M113.82,12c-6.32-3.35-3.34,3.75-1.94,6.51s11,23.74,27.42,25.65,26-8.23,23.42-10.22S126.84,18.87,113.82,12Z"/><path class="cls-2" d="M82.64,4.72c48.17,0,50.37,35.07,36.6,44.91C96.38,66,63.93,63.58,45.17,49.63,31.23,39.26,33.42,4.72,82.64,4.72Z"/><path class="cls-3" d="M76,37.87c1-2.32,12.11-2.47,13,0,1.1,3.21-6.58,5-6.58,5S74.71,40.89,76,37.87Z"/><path class="cls-4" d="M111.65,29.62a5.73,5.73,0,0,1-5.79,4.1c-4.21,0-5.61-4.1-5.61-4.1"/><path class="cls-4" d="M63.65,29.62a5.73,5.73,0,0,1-5.79,4.1c-4.21,0-5.61-4.1-5.61-4.1"/><path class="cls-5" d="M78.5,51.37c0-2,3.66-5.16,3.66-5.16s3.66,3.14,3.66,5.16A3.66,3.66,0,1,1,78.5,51.37Z"/><path class="cls-6" d="M96.75,14q3.36,0,6.72,0L102.28,12A60,60,0,0,1,98.49,17a1.41,1.41,0,0,0,.61,2.32c2.07,0.76,4.76.4,6.93,0.44A1.39,1.39,0,0,0,106,17c-1.92,0-4.39.33-6.19-.34L100.45,19a66.8,66.8,0,0,0,4.22-5.61,1.4,1.4,0,0,0-1.2-2.08q-3.36-.06-6.72,0a1.39,1.39,0,0,0,0,2.77h0Z"/><path class="cls-6" d="M105.75,5.25q6.35-.06,12.69.05l-2.26-3.94A113.34,113.34,0,0,1,109,10.91a2.66,2.66,0,0,0,1.15,4.37c3.9,1.44,9,.75,13.08.82,3.37,0.06,3.37-5.17,0-5.23-3.62-.07-8.28.62-11.69-0.64l1.15,4.37a126.12,126.12,0,0,0,8-10.6c1.14-1.7-.38-3.9-2.26-3.94Q112.1,0,105.75,0c-3.36,0-3.37,5.26,0,5.23h0Z"/><path class="cls-6" d="M128.3,10.77q7,1.44,14,3.09l-1.31-5a133.15,133.15,0,0,1-10.77,9.35c-1.62,1.26-.79,3.7.6,4.65,3.86,2.63,9.78,3,14.25,4.07,3.71,0.87,5.29-4.84,1.57-5.71l-7-1.65c-1.94-.46-4.13-0.68-5.8-1.81l0.6,4.65a133.15,133.15,0,0,0,10.77-9.35,3,3,0,0,0-1.31-5q-7-1.65-14-3.09c-3.72-.76-5.31,4.95-1.57,5.71h0Z"/></svg>